<?xml version="1.0" encoding="utf-8"?>
<!-- Generator: Adobe Illustrator 24.0.1, SVG Export Plug-In . SVG Version: 6.00 Build 0)  -->
<svg version="1.1" id="Capa_1" xmlns="http://www.w3.org/2000/svg" xmlns:xlink="http://www.w3.org/1999/xlink" x="0px" y="0px"
	 viewBox="0 0 605 442" style="enable-background:new 0 0 605 442;" xml:space="preserve">
<style type="text/css">
	.st0{fill:url(#SVGID_1_);}
	.st1{fill:url(#SVGID_2_);}
	.st2{fill:url(#SVGID_3_);}
	.st3{fill:#4DA8F2;}
	.st4{fill:#364256;}
	.st5{fill:#BBD070;}
	.st6{fill:#97A43C;}
	.st7{fill:#48753A;}
	.st8{fill:#282723;}
	.st9{fill:url(#SVGID_4_);}
	.st10{fill:#252E3B;}
	.st11{fill:url(#SVGID_5_);}
	.st12{fill:#A77860;}
	.st13{fill:url(#SVGID_6_);}
	.st14{fill:url(#SVGID_7_);}
	.st15{fill:url(#SVGID_8_);}
	.st16{fill:url(#SVGID_9_);}
	.st17{fill:url(#SVGID_10_);}
	.st18{fill:url(#SVGID_11_);}
	.st19{fill:url(#SVGID_12_);}
	.st20{opacity:0.25;fill:#1F2733;}
	.st21{fill:#1F2733;}
	.st22{fill:url(#SVGID_13_);}
	.st23{fill:url(#SVGID_14_);}
	.st24{fill:url(#SVGID_15_);}
	.st25{fill:url(#SVGID_16_);}
	.st26{fill:url(#SVGID_17_);}
	.st27{fill:#FFFFFF;}
	.st28{fill:url(#SVGID_18_);}
	.st29{fill:url(#SVGID_19_);}
	.st30{fill:url(#SVGID_20_);}
	.st31{fill:url(#SVGID_21_);}
	.st32{fill:url(#SVGID_22_);}
	.st33{fill:url(#SVGID_23_);}
	.st34{fill:url(#SVGID_24_);}
	.st35{fill:url(#SVGID_25_);}
	.st36{fill:#1D2734;}
	.st37{fill:url(#SVGID_26_);}
	.st38{fill:url(#SVGID_27_);}
	.st39{fill:url(#SVGID_28_);}
	.st40{fill:url(#SVGID_29_);}
	.st41{fill:url(#SVGID_30_);}
	.st42{fill:url(#SVGID_31_);}
	.st43{fill:url(#SVGID_32_);}
</style>
<path class="st20" d="M559.9,382.5c0,11.5-112.4,20.5-251.3,20.5s-251-9-251-20.5s112.4-20.5,251.3-20.5S559.9,370.9,559.9,382.5z"
	/>
<path class="st21" d="M284.8,188.7c22.3,15.8,41.4,36.7,59.4,57.3c9,10.4,35.7,52.9,43.9,63.8c15.5,20.5,8.3,20.2-19.5,35.3
	c-3.6,1.8-7.2,2.9-11.2,3.6c-46.5,4.7-68.1-56.2-82.1-89c-6.1-14.4-12.6-31.7-17.6-46.5C261.7,186.5,284.8,188.7,284.8,188.7z"/>
<path class="st21" d="M271.8,345.4c23.8-13.7,50.8-22,77.1-29.5c13-3.6,63-10.1,76.4-13c25.2-5.4,22,1.1,23.8,32.4
	c0.4,4-0.4,7.9-1.8,11.5c-15.5,44.3-79.6,37.8-115.3,36.7c-15.5-0.4-34.2-2.2-49.7-3.6C260.3,365.5,271.8,345.4,271.8,345.4z"/>
<linearGradient id="SVGID_1_" gradientUnits="userSpaceOnUse" x1="-3926.4316" y1="4189.5034" x2="-3926.4316" y2="4265.229" gradientTransform="matrix(0.9924 0.1228 0.1228 -0.9924 3593.2007 5011.6768)">
	<stop  offset="0" style="stop-color:#FBC3AC"/>
	<stop  offset="0.2563" style="stop-color:#F2B9A3"/>
	<stop  offset="0.6866" style="stop-color:#DB9F8B"/>
	<stop  offset="1" style="stop-color:#C68876"/>
</linearGradient>
<path class="st0" d="M262.8,355.5c0-2.2-0.7-4.7-1.1-6.8c0-0.7-1.1-6.8-1.1-7.6c1.1-10.1,6.8-37.5,6.8-37.5l-27.4-4.3
	c0,0,0.4,24.5-5.4,37.8l0,0c-13.3,5-36.4,10.8-36.4,10.8s-25.2,0.4-26.7,0.7c-1.4,0.4-4.7,0.7-9,3.6c0,0-4,5.8,26.3,15.1
	c0,0,13,4.7,34.6,4.7c4.7,0.4,9.4,0.4,14,0.7s19.1,1.8,21.3,0.7c0.7-0.4,1.4-0.7,1.8-1.4C263.9,368.4,262.5,360.1,262.8,355.5z"/>
<path class="st21" d="M261.7,348.6c0-0.4-0.4-2.5-0.7-4.7c-1.1,0.4-2.2,0.7-3.2,1.1c-12.6,4.3-25.2,1.8-37.5-2.9
	c-0.4,0-0.4,0-0.7-0.4c-10.8,3.2-21.3,5.8-21.3,5.8s-25.2,0.4-26.7,0.7s-4.7,0.7-9,3.6c0,0-4,5.8,26.3,15.1c0,0,13,4.7,34.6,4.7
	c4.7,0.4,9.4,0.4,14,0.7s19.1,1.8,21.3,0.7c0.7-0.4,1.4-0.7,1.8-1.4c3.2-4,1.8-12.2,2.2-16.9C262.8,353.3,262.1,350.8,261.7,348.6z"
	/>
<path class="st21" d="M270.4,188.7C270.4,188.3,270.4,188.3,270.4,188.7c-12.6-0.4-23.4,9-24.5,21.6c-2.9,30.6-7.2,75.6-9.4,101.2
	l28.5,5.4c8.3-25.6,14.8-51.5,19.1-77.8c1.8-11.5,3.6-30.3,4.3-41.8c0-2.2-3.6-5.8-3.2-8.3C279,188,276.9,188.7,270.4,188.7z"/>
<linearGradient id="SVGID_2_" gradientUnits="userSpaceOnUse" x1="331.2569" y1="118.8509" x2="395.3724" y2="118.8509">
	<stop  offset="0" style="stop-color:#FBC3AC"/>
	<stop  offset="0.2563" style="stop-color:#F2B9A3"/>
	<stop  offset="0.6866" style="stop-color:#DB9F8B"/>
	<stop  offset="1" style="stop-color:#C68876"/>
</linearGradient>
<path class="st1" d="M387.1,81.7l2.9,15.8l4.3,24.1l1.1,6.8c-13.3,27.4-38.5,32.1-47.5,23.8c-9-8.3-16.6-57.6-16.6-57.6L387.1,81.7z
	"/>
<path class="st21" d="M390.3,74.1c-5-10.8-34.2-8.6-47.5,1.8c-13,10.4-22-4.7-26.3-3.6c-4.3,1.1-10.1,9.7,1.8,24.9
	c11.9,15.1,32.1,9,38.2,11.9c0.8,0.4,1.8,1.3,3,2.7c0.9-3.4,6.6-6.8,10.7-4.1c5.1,3.7,6.8,13.4,1.7,21.7c6.9,11,13.4,22.2,13.4,22.2
	l7.9-3.2c6.1-2.5,11.2-23.8,13.3-48.6C408.7,74.5,390.3,74.1,390.3,74.1z"/>
<linearGradient id="SVGID_3_" gradientUnits="userSpaceOnUse" x1="394.7504" y1="160.359" x2="390.8575" y2="329.7002">
	<stop  offset="0" style="stop-color:#87D6FF"/>
	<stop  offset="1" style="stop-color:#514FFF"/>
</linearGradient>
<path class="st2" d="M395,160.6c-17.3,2.2-44.3,7.2-49.3,27c-2.5,10.4-2.2,22-0.4,32.4c1.4,8.3,2.9,16.9,4,25.2
	c1.8,14.4,3.6,30.3-0.4,44.3l-16.2,29.5c0,0,78.2,34.6,117.1-11.2c0,0-2.5-113.8-20.5-140.5c-2.2-3.2-7.9-4.7-11.2-5.4
	C410.5,159.9,402.6,159.5,395,160.6z"/>
<linearGradient id="SVGID_4_" gradientUnits="userSpaceOnUse" x1="-257.9528" y1="2003.5551" x2="-289.68" y2="1885.4353" gradientTransform="matrix(0.9418 -0.3364 -0.3364 -0.9418 1222.2826 1985.7068)">
	<stop  offset="0" style="stop-color:#FBC3AC"/>
	<stop  offset="0.2563" style="stop-color:#F2B9A3"/>
	<stop  offset="0.6866" style="stop-color:#DB9F8B"/>
	<stop  offset="1" style="stop-color:#C68876"/>
</linearGradient>
<path class="st9" d="M253.7,204.1c0,0,1.9,14.8,10.6,24.4c8.7,9.7,18.4,13.6,26.8,24c6.5,8.3,69.9,68.4,76.2,46.4
	c0.7-2.9-0.4-6.1-1.5-8.6c-10.9-26.2-36.9-36.9-60.1-50.8l-8.7-5.7c0,0-17.1-36.9-26.5-45.1L253.7,204.1z"/>
<g>
	
		<linearGradient id="SVGID_5_" gradientUnits="userSpaceOnUse" x1="-206.9724" y1="3223.1619" x2="-143.5967" y2="3223.1619" gradientTransform="matrix(0.9968 -8.059703e-02 -8.059703e-02 -0.9968 697.4224 3396.6294)">
		<stop  offset="0" style="stop-color:#87D6FF"/>
		<stop  offset="1" style="stop-color:#514FFF"/>
	</linearGradient>
	<path class="st11" d="M250.6,167.4l-19,21.7c-1.4,1.4-1.1,4,0.4,5l38.7,34.7c1.4,1.4,4,1.1,5-0.4l18.6-20.6c1.4-1.4,1.1-3.6-0.4-5
		L255.6,167C254.2,165.5,251.7,165.9,250.6,167.4z"/>
	<g>
		<g>
			<polygon class="st27" points="235.2,191.2 268.1,220.9 285.7,201.4 252.8,170.6 			"/>
		</g>
	</g>
</g>
<linearGradient id="SVGID_6_" gradientUnits="userSpaceOnUse" x1="268.8465" y1="200.7769" x2="311.0196" y2="294.8553">
	<stop  offset="0" style="stop-color:#FBC3AC"/>
	<stop  offset="0.2563" style="stop-color:#F2B9A3"/>
	<stop  offset="0.6866" style="stop-color:#DB9F8B"/>
	<stop  offset="1" style="stop-color:#C68876"/>
</linearGradient>
<path class="st13" d="M273.2,228.8c0,0,2.9-1.8,1.8-7.2c-1.1-5.4-3.7-18.4-3.7-18.4s0-4.7,1.8-3.6c1.8,1.1,5.8,3.9,7.3,11.8
	c0,0,1.5,6.8,3.3,8.6c1.8,1.8,6.5,6.4,7.3,14.4C290.9,234.1,278,238.5,273.2,228.8z"/>
<g>
	
		<linearGradient id="SVGID_7_" gradientUnits="userSpaceOnUse" x1="-4335.3848" y1="5020.1777" x2="-4347.0566" y2="4914.4409" gradientTransform="matrix(0.9818 -0.1894 -0.1894 -0.9818 5563.9536 4304.7827)">
		<stop  offset="0" style="stop-color:#FBC3AC"/>
		<stop  offset="0.2563" style="stop-color:#F2B9A3"/>
		<stop  offset="0.6866" style="stop-color:#DB9F8B"/>
		<stop  offset="1" style="stop-color:#C68876"/>
	</linearGradient>
	<path class="st14" d="M369.8,298.6c2.5-3.6,2.8-8.7,3.2-14.1c0.3-13,0.9-25.9,1.6-38.9c0.3-5.8,0.3-11.5,0.6-17.3
		c0.3-11.9,0.9-29.2-14.2-31.6c-3.6-0.7-7.9,1.8-10.1,4.4c-1.8,1.8-2.5,4.3-3.2,7.2c-1.4,6.1-1,13.3-1,18.7
		c-0.7,10.8-1,21.3-0.9,32.1c0,6.8,0.1,13.7,0.5,20.5c0.4,5.8,0.1,13,3,18c2.9,5.7,9.8,6.4,14.8,5
		C366.2,302.2,368.3,300.4,369.8,298.6z"/>
</g>
<linearGradient id="SVGID_8_" gradientUnits="userSpaceOnUse" x1="357.2238" y1="171.5377" x2="360.1435" y2="252.3154">
	<stop  offset="0" style="stop-color:#87D6FF"/>
	<stop  offset="1" style="stop-color:#514FFF"/>
</linearGradient>
<path class="st15" d="M381.8,251.7c-2.2-15.8-0.4-73.1-23.1-75.5c-25.2-2.4-20.1,76.5-20.1,76.5L381.8,251.7z"/>
<linearGradient id="SVGID_9_" gradientUnits="userSpaceOnUse" x1="-12167.0068" y1="6904.7026" x2="-12175.3193" y2="6983.2778" gradientTransform="matrix(-0.1667 0.986 0.986 0.1667 -8752.7959 11186.6514)">
	<stop  offset="0" style="stop-color:#FBC3AC"/>
	<stop  offset="0.2563" style="stop-color:#F2B9A3"/>
	<stop  offset="0.6866" style="stop-color:#DB9F8B"/>
	<stop  offset="1" style="stop-color:#C68876"/>
</linearGradient>
<path class="st16" d="M108.3,384.3c2.2-0.4,4.7-1.4,6.8-2.2c0.7-0.4,6.8-2.2,7.6-2.2c10.1-0.7,37.8,0.4,37.8,0.4l-0.4-27.7
	c0,0-24.1,4.7-38.2,1.1l0,0c-7.2-12.2-22.7-28.5-22.7-28.5s-5.4-13.3-5.8-14.8c-0.7-1.4,3.6-4.3,0.4-7.9c0,0-0.7-18.7-4.7,12.6
	c0,0-7.2,13-3.2,34.2c0.4,4.7,1.1,9.4,1.4,14c0.7,4.7,1.4,19.1,2.9,20.9c0.7,0.7,1.1,1.1,1.8,1.4C95.7,387.5,103.6,385,108.3,384.3z
	"/>
<path class="st21" d="M114.8,382.1c-1.4-6.8-1.1-14.8-0.4-20.9c0.4-4.7,1.8-9.7,3.6-14c-6.5-12.2-13.3-27.4-13.3-27.4
	s-5-17.6-5.4-19.1c-0.7-1.4-1.4-4.3-5-7.9c0,0-6.5-9.7-10.4,21.3c0,0-2.5,13.3,1.4,34.9c0.4,4.7,1.1,9.4,1.4,14
	c0.7,4.7,1.4,19.1,2.9,20.9c0.7,0.7,1.1,1.1,1.8,1.4c4.3,2.5,12.2,0,16.9-0.7C110.5,383.9,112.6,382.8,114.8,382.1z"/>
<path class="st21" d="M146.8,379.9c32.8,4.7,104.8,10.8,145.5-3.2c6.5-2.2,13.3-8.6,14-15.8c0.7-5.4-1.8-13.3-6.5-16.6
	c-4-2.9-16.6-3.6-21.3-3.6c-12.6,0.7-93.3,6.8-131.5,10.1L146.8,379.9z"/>
<g>
	
		<linearGradient id="SVGID_10_" gradientUnits="userSpaceOnUse" x1="-459.1761" y1="3889.4907" x2="-351.8912" y2="3756.8477" gradientTransform="matrix(1 0 0 -1 539 3944.5)">
		<stop  offset="0" style="stop-color:#87D6FF"/>
		<stop  offset="1" style="stop-color:#514FFF"/>
	</linearGradient>
	<path class="st17" d="M198.1,148.5L198.1,148.5c1-2.6,1.9-5.3,2.7-8c0.9-3.2,1.5-6.3,2-9.5v0.1c1.9-10.7-11.9-13.4-14.8-23.9
		c-2.8-10.5,7.8-19.6,0.9-28l0,0c-3.6-4.6-7.7-8.8-12.4-12.6c-8.3-6.9-17.5,3.5-27.9,0.6c-10.5-2.8-13-16.7-23.7-14.9
		c-6.2,0.8-12.3,2.4-18.1,4.7l0,0c-10.2,3.7-5.5,17-13.3,24.6c-7.7,7.7-20.9,3-24.6,13.3l0,0c-1,2.6-2,5.3-2.7,8
		c-0.9,3.1-1.5,6.3-2,9.4l0,0C62.5,123.1,76.2,125.5,79,136s-7.8,19.6-0.8,27.9l0,0c3.6,4.6,7.7,8.8,12.4,12.6
		c8.3,6.9,17.4-3.5,27.8-0.6c10.5,2.9,12.9,16.8,23.6,15c6.2-0.8,12.3-2.4,18.1-4.7l0,0c10.2-3.7,5.5-17,13.3-24.6
		C181.1,153.9,194.3,158.7,198.1,148.5z"/>
	<g>
		<path class="st27" d="M150.4,145c-1.8,0-3.5-0.7-4.8-2l-33.7-33.6c-1.2-1.3-1.9-3-1.9-4.7c0-1.8,0.7-3.5,2-4.7s2.9-1.9,4.7-1.9
			c1.8,0,3.5,0.7,4.8,2l33.7,33.6c1.2,1.3,1.9,3,1.9,4.7c0,1.8-0.7,3.5-2,4.7C153.9,144.2,152.2,145,150.4,145z"/>
		<path class="st27" d="M146.8,114.1c-1.8,0-3.5-0.7-4.7-2l-16.6-16.4c-2.6-2.6-2.5-6.9,0.1-9.5c1.3-1.2,2.9-1.9,4.7-1.9
			s3.5,0.7,4.7,2l16.5,16.4c1.2,1.3,1.9,3,1.9,4.7c0,1.8-0.7,3.5-2,4.7C150.2,113.4,148.5,114.1,146.8,114.1z"/>
		<path class="st27" d="M136.5,158.7c-1.8,0-3.5-0.7-4.7-2l-16.6-16.5c-1.2-1.3-1.9-3-1.9-4.7c0-1.8,0.7-3.5,2-4.7
			c1.3-1.2,2.9-1.9,4.7-1.9c1.8,0,3.5,0.7,4.7,2l16.5,16.4c1.2,1.3,1.9,3,1.9,4.7c0,1.8-0.7,3.5-2,4.7
			C139.9,158,138.2,158.7,136.5,158.7z"/>
	</g>
</g>
</svg>
